<svg width="20" height="16" viewBox="0 0 20 16" fill="none" xmlns="http://www.w3.org/2000/svg">
<path fill-rule="evenodd" clip-rule="evenodd" d="M1.62028 0.0676994C0.866023 0.270258 0.274413 0.869556 0.0754402 1.63255C-0.0262553 2.02243 -0.0246042 13.6661 0.0771805 14.0564C0.277671 14.8251 0.872404 15.4172 1.64621 15.6185C2.03211 15.7189 17.9767 15.7189 18.3626 15.6185C19.1364 15.4172 19.7311 14.8251 19.9316 14.0564C19.9911 13.8279 19.9999 13.0794 19.9999 8.19764C19.9999 2.04052 20.0136 2.3586 19.7255 1.81875C19.5588 1.50651 19.1638 1.11945 18.8492 0.960251C18.341 0.703052 18.4901 0.710317 13.7197 0.710317H9.33241L9.10175 0.528214C8.80536 0.294236 8.43816 0.110796 8.13919 0.0473766C7.97645 0.0128815 6.96075 -0.00182569 4.88172 0.00017984C2.39096 0.00258648 1.8185 0.0144414 1.62028 0.0676994ZM7.93767 1.47095C8.16445 1.55674 8.2673 1.70319 8.69323 2.54627C9.04851 3.2495 9.15494 3.42019 9.37573 3.64071C9.66368 3.92831 10.0635 4.14811 10.4416 4.2266C10.6027 4.26007 11.8452 4.27571 14.3364 4.27571C18.3852 4.27571 18.1867 4.26149 18.421 4.56834L18.5497 4.73671V9.27167C18.5497 13.7824 18.5492 13.8073 18.4576 13.9297C18.407 13.9974 18.3102 14.0941 18.2424 14.1446L18.1192 14.2365H10.0088H1.89837L1.72979 14.1081C1.41685 13.8697 1.43679 14.2965 1.43679 7.84543C1.43679 3.81929 1.45156 1.96966 1.48441 1.88311C1.54773 1.71611 1.69659 1.55915 1.86071 1.48632C2.03438 1.40922 7.73647 1.39478 7.93767 1.47095ZM18.1436 2.1986C18.3526 2.28577 18.5335 2.53959 18.5611 2.78413L18.5838 2.98557L18.4552 2.9287C18.3555 2.88463 17.4636 2.86684 14.489 2.84955C11.6985 2.83333 10.627 2.81319 10.5622 2.77566C10.4273 2.69762 10.2928 2.53647 10.187 2.32589L10.0918 2.13647H14.0433C17.3211 2.13647 18.0201 2.14708 18.1436 2.1986Z" fill="#B6B6B6"/>
</svg>
